<?xml version="1.0" standalone="no"?>
<!DOCTYPE svg PUBLIC "-//W3C//DTD SVG 1.1//EN" "http://www.w3.org/Graphics/SVG/1.1/DTD/svg11.dtd" >
<svg xmlns="http://www.w3.org/2000/svg">
<metadata>
This is a custom SVG webfont generated by Font Squirrel.
Copyright   :  2004 Ray Larabie This font is freeware Read attached text file for details Info  updates visit wwwlarabiefontscom Donations gratefully accepted at wwwlarabiefontscomdonationhtml Also visit my commercial type foundry at wwwtypodermiccom This font was updated in 2004
Designer    : Ray Larabie
Foundry     : Ray Larabie
Foundry URL : httpwwwlarabiefontscom
</metadata>
<defs>
<font id="PirulenRegular" horiz-adv-x="2109" >
<font-face units-per-em="2048" ascent="1638" descent="-410" />
<missing-glyph horiz-adv-x="1024" />
<glyph unicode=" "  horiz-adv-x="1024" />
<glyph unicode="&#x09;" horiz-adv-x="1024" />
<glyph unicode="&#xa0;" horiz-adv-x="1024" />
<glyph unicode="!" horiz-adv-x="524" d="M102 1442h314l-62 -1032h-190zM139 0v266h240v-266h-240z" />
<glyph unicode="&#x22;" horiz-adv-x="829" d="M121 1196v246h213v-248l-78 -211h-63zM494 1200v242h211v-242l-66 -217h-88z" />
<glyph unicode="#" horiz-adv-x="1208" d="M109 817v184h204v226h-204v184h204v307h185v-307h225v307h184v-307h205v-184h-205v-226h205v-184h-205v-307h-184v307h-225v-307h-185v307h-204zM498 1001h225v226h-225v-226z" />
<glyph unicode="$" horiz-adv-x="1611" d="M63 926q0 311 515 311h92v205h272v-205h557v-213h-921q-242 0 -242 -98t242 -99h454q514 0 514 -311t-514 -311h-90v-205h-272v205h-557v213h919q242 0 242 98t-242 98h-454q-515 1 -515 312z" />
<glyph unicode="%" horiz-adv-x="1720" d="M63 1372q0 348 349 348q348 0 348 -348t-348 -348q-349 0 -349 348zM238 0l956 1720h211l-959 -1720h-208zM248 1372q0 -164 164 -164t163 160q0 168 -163 168q-164 0 -164 -164zM883 348q0 348 348 348t348 -348t-348 -348t-348 348zM1067 348q0 -164 164 -164t164 160 q0 168 -164 168t-164 -164z" />
<glyph unicode="&#x26;" horiz-adv-x="1570" d="M123 311v246q0 133 90 205q-90 74 -90 205v163q0 311 514 312h770v-213h-770q-242 0 -242 -99v-163q0 -47 56.5 -73t171.5 -26h852v-213h-156v-655h-682q-514 0 -514 311zM395 311q0 -98 242 -98h407v442h-423q-113 0 -169.5 -27.5t-56.5 -70.5v-246z" />
<glyph unicode="'" horiz-adv-x="464" d="M102 1196v246h252v-248l-73 -211h-107z" />
<glyph unicode="(" horiz-adv-x="616" d="M63 725q0 215 68 432t199 449h213q-289 -494 -289 -883q0 -201 69.5 -417t223.5 -470h-211q-143 238 -208 454t-65 435z" />
<glyph unicode=")" horiz-adv-x="616" d="M70 1606h211q143 -238 207.5 -454t64.5 -435q0 -215 -67.5 -432t-198.5 -449h-213q289 494 288 883q0 201 -69 417t-223 470z" />
<glyph unicode="*" horiz-adv-x="765" d="M57 1147l54 158l192 -76v215h162v-215l184 76l58 -158l-193 -76l113 -153l-127 -105l-117 156l-119 -160l-129 100l121 162z" />
<glyph unicode="+" horiz-adv-x="819" d="M41 410v213h262v245h211v-245h262v-213h-262v-246h-211v246h-262z" />
<glyph unicode="," horiz-adv-x="534" d="M109 0v266h321v-213l-100 -203h-174l57 150h-104z" />
<glyph unicode="-" horiz-adv-x="1146" d="M133 580v213h879v-213h-879z" />
<glyph unicode="." horiz-adv-x="593" d="M133 0v266h322v-266h-322z" />
<glyph unicode="/" horiz-adv-x="1044" d="M14 0l795 1442h221l-794 -1442h-222z" />
<glyph unicode="0" horiz-adv-x="1835" d="M127 311v819q0 311 514 312h553q514 0 514 -312v-823q0 -307 -514 -307h-553q-514 0 -514 311zM399 311q0 -98 242 -98h553q242 0 242 94v823q0 98 -242 99h-553q-242 0 -242 -99v-819z" />
<glyph unicode="1" horiz-adv-x="804" d="M10 1124l281 318h379v-1442h-273v1229l-100 -105h-287z" />
<glyph unicode="2" horiz-adv-x="1716" d="M117 0v557q0 311 514 311h454q242 0 242 99v163q0 98 -242 99h-899v213h899q514 0 514 -312v-163q0 -311 -514 -312h-454q-242 0 -242 -98v-344h1210v-213h-1482z" />
<glyph unicode="3" horiz-adv-x="1658" d="M115 0v213h907q242 0 242 98v258q0 47 -56.5 73t-173.5 26h-858v213h862q113 0 169.5 27.5t56.5 70.5v151q0 98 -242 99h-907v213h907q514 0 514 -312v-151q0 -135 -152 -205q152 -74 152 -205v-258q0 -311 -514 -311h-907z" />
<glyph unicode="4" horiz-adv-x="1857" d="M33 246v172l762 1024h295l-734 -983h977v983h273v-983h151v-213h-151v-246h-273v246h-1300z" />
<glyph unicode="5" horiz-adv-x="1726" d="M125 0v213h969q242 0 241 94v332q0 98 -241 98h-969v705h1456v-213h-1184v-279h697q514 0 514 -311v-332q0 -307 -514 -307h-969z" />
<glyph unicode="6" horiz-adv-x="1875" d="M127 311v819q0 311 514 312h1051v-213h-1051q-242 0 -242 -99v-200h848q514 0 514 -312v-311q0 -307 -514 -307h-606q-514 0 -514 311zM399 311q0 -98 242 -98h606q242 0 242 94v311q0 98 -242 99h-848v-406z" />
<glyph unicode="7" horiz-adv-x="1720" d="M68 1229v213h1613v-172l-960 -1270h-309l962 1229h-1306z" />
<glyph unicode="8" horiz-adv-x="1892" d="M125 311v260q0 133 115 205q-115 70 -115 205v149q0 311 514 312h614q514 0 514 -312v-153q0 -133 -118 -205q119 -72 118 -201v-264q0 -307 -514 -307h-614q-514 0 -514 311zM397 311q0 -98 242 -98h614q242 0 242 94v264q0 98 -242 99h-614q-242 0 -242 -99v-260z M397 981q0 -98 242 -98h614q242 0 242 94v153q0 98 -242 99h-614q-242 0 -242 -99v-149z" />
<glyph unicode="9" horiz-adv-x="1873" d="M113 858v277q0 307 514 307h606q514 0 514 -312v-819q0 -311 -514 -311h-1051v213h1051q242 0 242 98v236h-848q-514 0 -514 311zM385 858q0 -98 242 -98h848v370q0 98 -242 99h-606q-242 0 -242 -94v-277z" />
<glyph unicode=":" horiz-adv-x="505" d="M133 0v266h281v-266h-281zM133 410v266h281v-266h-281z" />
<glyph unicode=";" horiz-adv-x="501" d="M106 0v266h281v-213l-100 -203h-133l57 150h-105zM106 410v266h281v-266h-281z" />
<glyph unicode="&#x3c;" horiz-adv-x="993" d="M14 592v192l879 357v-246l-580 -207l580 -211v-246z" />
<glyph unicode="=" horiz-adv-x="1099" d="M133 354v213h879v-213h-879zM133 805v213h879v-213h-879z" />
<glyph unicode="&#x3e;" horiz-adv-x="1026" d="M133 231v246l576 207l-576 211v246l879 -361v-192z" />
<glyph unicode="?" horiz-adv-x="1378" d="M94 1229v213h735q514 0 514 -312v-163q0 -311 -514 -312h-92q-242 0 -241 -98v-154h-232v154q0 311 473 311h92q242 0 242 99v163q0 98 -242 99h-735zM262 0v266h232v-266h-232z" />
<glyph unicode="@" horiz-adv-x="1738" d="M123 348v1024q0 348 348 348h819q348 0 348 -344v-1069h-184v1069q0 160 -164 160h-819q-164 0 -164 -164v-1024q0 -164 164 -164h860v-184h-860q-348 0 -348 348zM430 655v4q0 344 348 345h369v61q0 164 -164 164h-451v184h451q348 0 348 -348v-410q0 -348 -348 -348 h-205q-348 0 -348 348zM614 655q0 -164 164 -163h205q164 0 164 163v164h-369q-164 0 -164 -160v-4z" />
<glyph unicode="A" d="M0 0l958 1442h199l952 -1442h-294l-756 1178l-768 -1178h-291z" />
<glyph unicode="B" horiz-adv-x="1890" d="M133 0v1442h1120q514 0 514 -312v-137q0 -180 -159 -250q160 -74 159 -225v-207q0 -311 -514 -311h-1120zM406 213h847q242 0 242 98v228q0 45 -56.5 71.5t-170.5 26.5h-862v-424zM406 850h866q111 0 167 27.5t56 70.5v182q0 98 -242 99h-847v-379z" />
<glyph unicode="C" horiz-adv-x="1851" d="M125 332v778q0 332 514 332h1100v-213h-1100q-242 0 -242 -119v-778q0 -119 242 -119h1100v-213h-1100q-514 0 -514 332z" />
<glyph unicode="D" horiz-adv-x="2113" d="M133 0v1442h1260q596 0 596 -393v-660q0 -389 -596 -389h-1260zM406 213h987q324 0 323 176v660q0 180 -323 180h-987v-1016z" />
<glyph unicode="E" horiz-adv-x="1728" d="M133 0v1442h1483v-213h-1210v-361h1148v-213h-1148v-442h1210v-213h-1483z" />
<glyph unicode="F" horiz-adv-x="1630" d="M133 0v1442h1483v-213h-1210v-422h1128v-213h-1128v-594h-273z" />
<glyph unicode="G" horiz-adv-x="1910" d="M127 311v819q0 311 514 312h1128v-213h-1128q-242 0 -242 -99v-819q0 -98 242 -98h637q242 0 242 94v479h272v-479q0 -307 -514 -307h-637q-514 0 -514 311z" />
<glyph unicode="H" horiz-adv-x="1992" d="M133 0v1442h273v-574h1179v574h273v-1442h-273v655h-1179v-655h-273z" />
<glyph unicode="I" horiz-adv-x="546" d="M133 0v1442h273v-1442h-273z" />
<glyph unicode="J" horiz-adv-x="993" d="M18 0v213h332q242 0 242 94v1135h272v-1135q0 -307 -514 -307h-332z" />
<glyph unicode="K" horiz-adv-x="1759" d="M133 0v1442h273v-586h471l534 586h324l-641 -672l639 -770h-320l-551 643h-456v-643h-273z" />
<glyph unicode="L" horiz-adv-x="1619" d="M94 0v1442h275v-1229h1169v-213h-1444z" />
<glyph unicode="M" horiz-adv-x="2461" d="M133 0v1442h254l856 -1178l852 1178h234v-1442h-263v1001l-723 -1001h-223l-725 999v-999h-262z" />
<glyph unicode="N" horiz-adv-x="2177" d="M133 0v1442h215l1436 -1106v1106h258v-1442h-215l-1436 1098v-1098h-258z" />
<glyph unicode="O" horiz-adv-x="2099" d="M127 311v819q0 311 514 312h827q514 0 514 -312v-823q0 -307 -514 -307h-827q-514 0 -514 311zM399 311q0 -98 242 -98h827q242 0 242 94v823q0 98 -242 99h-827q-242 0 -242 -99v-819z" />
<glyph unicode="P" horiz-adv-x="1800" d="M133 0v1442h1120q514 0 514 -312v-286q0 -311 -514 -312h-847v-532h-273zM406 745h847q242 0 242 99v286q0 98 -242 99h-847v-484z" />
<glyph unicode="Q" horiz-adv-x="2050" d="M76 311v819q0 311 514 312h827q514 0 514 -312v-823q0 -244 -325 -295l182 -331h-291l-172 319h-735q-514 0 -514 311zM348 311q0 -98 242 -98h827q242 0 242 94v823q0 98 -242 99h-827q-242 0 -242 -99v-819z" />
<glyph unicode="R" horiz-adv-x="1906" d="M133 0v1442h1141q514 0 514 -312v-176q0 -260 -356 -303l342 -651h-291l-338 643h-739v-643h-273zM406 856h868q242 0 242 98v176q0 98 -242 99h-868v-373z" />
<glyph unicode="S" horiz-adv-x="2019" d="M113 973v157q0 311 514 312h1190v-213h-1190q-242 0 -242 -99v-157q0 -98 242 -99h766q514 0 514 -311v-256q0 -307 -514 -307h-1231v213h1231q242 0 241 94v256q0 98 -241 99h-766q-514 0 -514 311z" />
<glyph unicode="T" horiz-adv-x="1859" d="M47 1229v213h1763v-213h-735v-1229h-272v1229h-756z" />
<glyph unicode="U" horiz-adv-x="2054" d="M129 373v1069h272v-1069q0 -160 242 -160h766q242 0 242 156v1073h272v-1073q0 -369 -514 -369h-766q-514 0 -514 373z" />
<glyph unicode="V" d="M0 1442h297l766 -1178l758 1178h288l-952 -1442h-199z" />
<glyph unicode="W" horiz-adv-x="2742" d="M0 1442h262l502 -1106l506 1106h203l499 -1106l506 1106h264l-665 -1442h-205l-500 1106l-510 -1106h-198z" />
<glyph unicode="X" horiz-adv-x="2039" d="M25 0l823 721l-823 721h354l641 -578l641 578h350l-817 -711l821 -731h-352l-643 575l-639 -575h-356z" />
<glyph unicode="Y" horiz-adv-x="2117" d="M0 1442h348l713 -660l713 660h344l-920 -856v-586h-272v586z" />
<glyph unicode="Z" horiz-adv-x="2125" d="M133 0v184l1458 1024h-1458v234h1938v-185l-1465 -1024h1465v-233h-1938z" />
<glyph unicode="[" horiz-adv-x="530" d="M133 -164v1770h342v-131h-151v-1512h151v-127h-342z" />
<glyph unicode="\" horiz-adv-x="1042" d="M12 1442h221l795 -1442h-221z" />
<glyph unicode="]" horiz-adv-x="534" d="M53 -33h152v1512h-152v127h342v-1770h-342v131z" />
<glyph unicode="^" horiz-adv-x="1376" d="M57 492l518 704h222l522 -704h-322l-313 423l-313 -423h-314z" />
<glyph unicode="_" horiz-adv-x="1333" d="M0 -74h1333v-213h-1333v213z" />
<glyph unicode="`" horiz-adv-x="827" d="M47 1479v227l727 -197v-227z" />
<glyph unicode="a" d="M0 0l958 1442h199l952 -1442h-294l-756 1178l-768 -1178h-291z" />
<glyph unicode="b" horiz-adv-x="1890" d="M133 0v1442h1120q514 0 514 -312v-137q0 -180 -159 -250q160 -74 159 -225v-207q0 -311 -514 -311h-1120zM406 213h847q242 0 242 98v228q0 45 -56.5 71.5t-170.5 26.5h-862v-424zM406 850h866q111 0 167 27.5t56 70.5v182q0 98 -242 99h-847v-379z" />
<glyph unicode="c" horiz-adv-x="1851" d="M125 332v778q0 332 514 332h1100v-213h-1100q-242 0 -242 -119v-778q0 -119 242 -119h1100v-213h-1100q-514 0 -514 332z" />
<glyph unicode="d" horiz-adv-x="2113" d="M133 0v1442h1260q596 0 596 -393v-660q0 -389 -596 -389h-1260zM406 213h987q324 0 323 176v660q0 180 -323 180h-987v-1016z" />
<glyph unicode="e" horiz-adv-x="1728" d="M133 0v1442h1483v-213h-1210v-361h1148v-213h-1148v-442h1210v-213h-1483z" />
<glyph unicode="f" horiz-adv-x="1630" d="M133 0v1442h1483v-213h-1210v-422h1128v-213h-1128v-594h-273z" />
<glyph unicode="g" horiz-adv-x="1910" d="M127 311v819q0 311 514 312h1128v-213h-1128q-242 0 -242 -99v-819q0 -98 242 -98h637q242 0 242 94v479h272v-479q0 -307 -514 -307h-637q-514 0 -514 311z" />
<glyph unicode="h" horiz-adv-x="1992" d="M133 0v1442h273v-574h1179v574h273v-1442h-273v655h-1179v-655h-273z" />
<glyph unicode="i" horiz-adv-x="546" d="M133 0v1442h273v-1442h-273z" />
<glyph unicode="j" horiz-adv-x="993" d="M18 0v213h332q242 0 242 94v1135h272v-1135q0 -307 -514 -307h-332z" />
<glyph unicode="k" horiz-adv-x="1759" d="M133 0v1442h273v-586h471l534 586h324l-641 -672l639 -770h-320l-551 643h-456v-643h-273z" />
<glyph unicode="l" horiz-adv-x="1619" d="M94 0v1442h275v-1229h1169v-213h-1444z" />
<glyph unicode="m" horiz-adv-x="2461" d="M133 0v1442h254l856 -1178l852 1178h234v-1442h-263v1001l-723 -1001h-223l-725 999v-999h-262z" />
<glyph unicode="n" horiz-adv-x="2177" d="M133 0v1442h215l1436 -1106v1106h258v-1442h-215l-1436 1098v-1098h-258z" />
<glyph unicode="o" horiz-adv-x="2099" d="M127 311v819q0 311 514 312h827q514 0 514 -312v-823q0 -307 -514 -307h-827q-514 0 -514 311zM399 311q0 -98 242 -98h827q242 0 242 94v823q0 98 -242 99h-827q-242 0 -242 -99v-819z" />
<glyph unicode="p" horiz-adv-x="1800" d="M133 0v1442h1120q514 0 514 -312v-286q0 -311 -514 -312h-847v-532h-273zM406 745h847q242 0 242 99v286q0 98 -242 99h-847v-484z" />
<glyph unicode="q" horiz-adv-x="2050" d="M76 311v819q0 311 514 312h827q514 0 514 -312v-823q0 -244 -325 -295l182 -331h-291l-172 319h-735q-514 0 -514 311zM348 311q0 -98 242 -98h827q242 0 242 94v823q0 98 -242 99h-827q-242 0 -242 -99v-819z" />
<glyph unicode="r" horiz-adv-x="1906" d="M133 0v1442h1141q514 0 514 -312v-176q0 -260 -356 -303l342 -651h-291l-338 643h-739v-643h-273zM406 856h868q242 0 242 98v176q0 98 -242 99h-868v-373z" />
<glyph unicode="s" horiz-adv-x="2019" d="M113 973v157q0 311 514 312h1190v-213h-1190q-242 0 -242 -99v-157q0 -98 242 -99h766q514 0 514 -311v-256q0 -307 -514 -307h-1231v213h1231q242 0 241 94v256q0 98 -241 99h-766q-514 0 -514 311z" />
<glyph unicode="t" horiz-adv-x="1859" d="M47 1229v213h1763v-213h-735v-1229h-272v1229h-756z" />
<glyph unicode="u" horiz-adv-x="2054" d="M129 373v1069h272v-1069q0 -160 242 -160h766q242 0 242 156v1073h272v-1073q0 -369 -514 -369h-766q-514 0 -514 373z" />
<glyph unicode="v" d="M0 1442h297l766 -1178l758 1178h288l-952 -1442h-199z" />
<glyph unicode="w" horiz-adv-x="2742" d="M0 1442h262l502 -1106l506 1106h203l499 -1106l506 1106h264l-665 -1442h-205l-500 1106l-510 -1106h-198z" />
<glyph unicode="x" horiz-adv-x="2039" d="M25 0l823 721l-823 721h354l641 -578l641 578h350l-817 -711l821 -731h-352l-643 575l-639 -575h-356z" />
<glyph unicode="y" horiz-adv-x="2117" d="M0 1442h348l713 -660l713 660h344l-920 -856v-586h-272v586z" />
<glyph unicode="z" horiz-adv-x="2125" d="M133 0v184l1458 1024h-1458v234h1938v-185l-1465 -1024h1465v-233h-1938z" />
<glyph unicode="{" horiz-adv-x="602" d="M31 649v142q152 0 151 118v467q0 229 248 230h94v-131q-152 0 -151 -58v-508q0 -121 -137 -192q137 -70 137 -189v-503q0 -57 151 -58v-131h-94q-248 0 -248 230v462q1 121 -151 121z" />
<glyph unicode="|" horiz-adv-x="466" d="M133 -164v1770h191v-1770h-191z" />
<glyph unicode="}" horiz-adv-x="604" d="M78 -33q152 0 151 58v507q0 121 138 193q-137 70 -138 188v504q0 57 -151 58v131h94q248 0 248 -230v-463q0 -121 151 -120v-142q-152 0 -151 -119v-466q0 -229 -248 -230h-94v131z" />
<glyph unicode="~" horiz-adv-x="1550" d="M88 776l205 96q104 33 188 33q66 0 149 -12t161 -31v2q61 -10 123.5 -21.5t132.5 -11.5q41 0 84 12.5t92 45.5l237 -148l-203 -96q-98 -33 -188 -33q-68 0 -140.5 11.5t-144.5 25.5l-24 4v-2q-59 10 -127 22.5t-129 12.5q-41 0 -84 -12t-92 -45z" />
<glyph unicode="&#xa1;" horiz-adv-x="524" d="M100 0l62 1032h190l62 -1032h-314zM137 1176v266h240v-266h-240z" />
<glyph unicode="&#xa2;" horiz-adv-x="1417" d="M117 475v246q0 311 514 311h12v164h275v-164h380v-213h-380v-442h380v-213h-380v-164h-275v164h-12q-514 0 -514 311zM389 475q0 -98 242 -98h12v442h-12q-242 0 -242 -98v-246z" />
<glyph unicode="&#xa3;" horiz-adv-x="1533" d="M86 655v213h152v262q0 311 514 312h665v-213h-665q-242 0 -242 -99v-262h303v-213h-303v-442h907v-213h-1179v655h-152z" />
<glyph unicode="&#xa4;" horiz-adv-x="2895" d="M127 0v696h139v58h-37v180h37v63h-37v76h899v-94q-14 27 -49 27q-94 0 -94 -158q0 -156 98 -156q31 0 64 39v-35h49v377h766v-53h70v53h737v-1073h-2642zM127 754v180h41v-180h-41zM127 997v76h41v-76h-41zM186 160h123v86h-45v301h-78v-387zM289 823q0 -131 94 -131 q29 0 51 17q0 -47 -57 -47h-31v-62h43q113 12 113 145v252h-68v-186q0 -53 -41 -53q-39 0 -39 53v186h-65v-174zM340 160h76v73h26v-73h82v141l-53 246h-84l-47 -246v-141zM416 291v39l12 102h4l10 -102v-39h-26zM524 600h68v115q14 -25 49 -25q94 0 94 156t-98 155 q-29 0 -64 -40v36h-49v-397zM555 160h78v170h22v-170h84v155l-30 43v7l30 41v100l-22 41h-162v-387zM586 793v102q12 31 43 31q43 0 43 -78q0 -88 -45 -88q-29 0 -41 33zM633 393v84h22v-84h-22zM750 844q0 -156 110 -156q113 0 113 156q0 160 -113 160q-110 0 -110 -160z M770 160h78v73h24v-73h78v141l-49 246h-84l-47 -246v-141zM817 844q0 84 43 84q45 0 45 -84q0 -82 -45 -82q-43 0 -43 82zM848 291v39l10 102h6l8 -102v-39h-24zM983 160h162l22 43v127l-16 28v7l16 28v113l-22 41h-162v-387zM1049 846q0 88 45 88q27 0 39 -33v-104 q-12 -29 -41 -29q-43 0 -43 78zM1063 233v97h22v-97h-22zM1063 393v84h22v-84h-22zM1200 160h80v387h-80v-387zM1214 774q2 -86 93 -86q45 0 70.5 26.5t25.5 82.5h-31q-6 -39 -51 -39q-41 0 -41 28q0 37 41 37h20v37h-20q-41 0 -41 35q0 33 41 33q35 0 51 -41h31v110h-31 v-47q-23 53 -67 54q-88 0 -88 -89q0 -55 45 -73q-48 -19 -48 -68zM1311 160h131v86h-53v80h53v67h-53v72h53v82h-131v-387zM1425 696h91v58h-29v133q0 41 29 41q12 0 24 -13l23 68q-16 14 -35 16q-43 0 -64 -49v47h-39v-301zM1530 160h80v159h49v68h-49v78h49v82h-129v-387z M1544 696h144v58h-39v125q0 47 39 47q31 0 30 -47v-183h105v58h-39v125q0 45 39 45q31 0 30 -45v-183h68v193q0 111 -96 110q-49 0 -64 -49q-18 49 -57 49q-35 0 -55 -49v47h-66v-243h-39v-58zM1692 203l20 -43h137l25 43v303l-23 41h-139l-20 -41v-303zM1769 233v244h23 v-244h-23zM1905 160h65v250h6l19 -250h119v387h-66v-250h-6l-23 250h-114v-387zM1931 934h31v-238h70v301h-101v-63zM2048 844q0 -154 104 -154q74 0 93 119h-33q-6 -47 -51 -47q-47 0 -47 82q0 84 47 84t51 -56h33v121h-33v-43q-25 53 -62 54q-102 0 -102 -160zM2136 465 h43v-305h80v305h43v82h-166v-82zM2324 203l23 -43h133l23 43v147l-27 43l-72 17v67h21v-49h78v78l-21 41h-135l-23 -41v-135l25 -41l76 -19v-78h-21v58h-80v-88z" />
<glyph unicode="&#xa5;" horiz-adv-x="2467" d="M131 1508h348l713 -660l713 660h344l-920 -856v-586h-272v586zM778 297v213h879v-213h-879zM778 748v213h879v-213h-879z" />
<glyph unicode="&#xa6;" horiz-adv-x="540" d="M133 -164v869h273v-869h-273zM133 901v705h273v-705h-273z" />
<glyph unicode="&#xa7;" horiz-adv-x="1662" d="M90 721q0 133 88 203q-88 70 -88 206q0 311 514 312h854v-213h-854q-242 0 -242 -99q0 -98 242 -98h455q514 0 514 -311q0 -133 -90 -205q90 -74 90 -205q0 -311 -514 -311h-907v213h907q242 0 241 98q0 98 -241 99h-455q-514 0 -514 311zM362 721q0 -43 54.5 -70.5 t158.5 -27.5h484q242 0 241 98q0 98 -241 98h-455q-242 0 -242 -98z" />
<glyph unicode="&#xa8;" horiz-adv-x="1267" d="M133 1319v295h342v-295h-342zM791 1319v295h342v-295h-342z" />
<glyph unicode="&#xa9;" horiz-adv-x="2095" d="M127 311v819q0 311 473 312h891q475 0 475 -312v-823q0 -307 -475 -307h-891q-473 0 -473 311zM358 311q0 -98 242 -98h891q244 0 244 94v823q0 98 -244 99h-891q-242 0 -242 -99v-819zM606 610v213q0 242 260 242h533v-164h-471q-123 0 -123 -78v-213q0 -78 123 -78h471 v-163h-533q-260 -1 -260 241z" />
<glyph unicode="&#xaa;" horiz-adv-x="798" d="M100 1006v2q0 186 207 186h199v33q0 25 -27 24h-334v191h342q207 0 207 -209v-227q0 -209 -207 -209h-180q-207 0 -207 209zM268 1001q0 -35 39 -34h180q18 0 19 18v59h-199q-39 0 -39 -43z" />
<glyph unicode="&#xab;" horiz-adv-x="1105" d="M102 604v168l492 367v-232l-297 -219l297 -225v-230zM512 604v168l492 367v-232l-297 -219l297 -225v-230z" />
<glyph unicode="&#xad;" horiz-adv-x="1146" d="M133 580v213h879v-213h-879z" />
<glyph unicode="&#xae;" horiz-adv-x="1880" d="M123 657v410q0 311 514 311h606q514 0 514 -311v-414q0 -307 -514 -307h-606q-514 0 -514 311zM270 674q0 -211 295 -211h740q295 0 294 207v391q0 213 -294 213h-740q-295 0 -295 -213v-387zM539 600v541h577q262 0 262 -117v-66q0 -98 -182 -114l174 -244h-147 l-172 242h-375v-242h-137zM676 922h440q123 0 123 36v66q0 37 -123 37h-440v-139z" />
<glyph unicode="&#xaf;" horiz-adv-x="1146" d="M133 1450v213h879v-213h-879z" />
<glyph unicode="&#xb0;" horiz-adv-x="901" d="M102 1270q0 348 349 348q348 0 348 -348t-348 -348q-349 0 -349 348zM287 1270q0 -164 164 -164t163 160q0 168 -163 168q-164 0 -164 -164z" />
<glyph unicode="&#xb1;" horiz-adv-x="1181" d="M133 41v213h879v-213h-879zM207 602v213h262v246h211v-246h262v-213h-262v-246h-211v246h-262z" />
<glyph unicode="&#xb2;" horiz-adv-x="747" d="M96 541v356q0 215 205 215h133q16 0 17 21v94q0 23 -17 22h-295v193h295q205 0 205 -215v-94q0 -215 -205 -215h-133q-18 0 -18 -21v-164h356v-192h-543z" />
<glyph unicode="&#xb3;" horiz-adv-x="747" d="M102 541v192h338q16 0 17 23v141q0 20 -17 21h-338v194h342q12 0 13 21v94q0 23 -17 22h-338v193h338q205 0 205 -215v-94q0 -37 -7 -66t-22 -53q29 -51 29 -117v-141q0 -215 -205 -215h-338z" />
<glyph unicode="&#xb4;" horiz-adv-x="829" d="M53 1298v230l727 194v-227z" />
<glyph unicode="&#xb5;" horiz-adv-x="2170" d="M133 -246v1278h273v-721q0 -98 241 -98h606q238 0 242 88v731h272v-966q0 -98 304 -99v-213q-276 0 -422 72t-154 219v-16q-102 -29 -242 -29h-606q-131 0 -241 29v-275h-273z" />
<glyph unicode="&#xb6;" horiz-adv-x="1464" d="M45 1065q0 377 514 377h770v-1442h-272v1065h-226v-1065h-274v1229q-240 -2 -240 -164h-272z" />
<glyph unicode="&#xb7;" horiz-adv-x="600" d="M129 584v266h322v-266h-322z" />
<glyph unicode="&#xb8;" horiz-adv-x="741" d="M133 0h242q264 0 264 -188t-301 -189h-205v139h273q61 0 61 58q0 57 -61 57h-273v123z" />
<glyph unicode="&#xb9;" horiz-adv-x="434" d="M102 1247v193q236 0 236 -215v-686h-164v686q0 22 -72 22z" />
<glyph unicode="&#xba;" horiz-adv-x="901" d="M102 1092q0 348 349 348q348 0 348 -348t-348 -349q-349 1 -349 349zM287 1092q0 -164 164 -164t163 159q0 168 -163 168q-164 1 -164 -163z" />
<glyph unicode="&#xbb;" horiz-adv-x="1105" d="M102 233v232l295 219l-295 225v230l492 -371v-168zM512 233v232l295 219l-295 225v230l492 -371v-168z" />
<glyph unicode="&#xbc;" horiz-adv-x="1611" d="M111 1528v192q291 0 290 -215v-686h-194v686q0 23 -96 23zM205 0l956 1720h211l-958 -1720h-209zM846 141v142l254 618h370v-565h48v-195h-48v-141h-194v141h-430zM1079 336h197v483z" />
<glyph unicode="&#xbd;" horiz-adv-x="1654" d="M102 1528v192q293 0 293 -215v-686h-196v686q-1 23 -97 23zM213 0l956 1720h211l-958 -1720h-209zM950 0v356q0 215 219 215h146q23 0 22 21v94q0 23 -22 23h-318v192h318q219 0 219 -215v-94q0 -215 -219 -215h-146q-23 0 -22 -21v-163h387v-193h-584z" />
<glyph unicode="&#xbe;" horiz-adv-x="1728" d="M102 819v193h365q23 0 22 22v142q0 16 -22 20h-365v195h369q18 0 18 20v94q0 23 -22 23h-365v192h365q219 0 219 -215v-94q0 -74 -29 -119q29 -45 29 -116v-142q0 -215 -219 -215h-365zM336 0l956 1720h211l-958 -1720h-209zM956 141v135l258 625h375v-565h49v-195h-49 v-141h-196v141h-437zM1188 336h205v483z" />
<glyph unicode="&#xbf;" horiz-adv-x="1378" d="M94 311v164q0 311 514 311h92q242 0 242 99v153h232v-153q0 -311 -474 -312h-92q-242 0 -241 -98v-164q0 -98 241 -98h735v-213h-735q-514 0 -514 311zM944 1176v266h232v-266h-232z" />
<glyph unicode="&#xc0;" d="M0 0l958 1442h199l952 -1442h-294l-756 1178l-768 -1178h-291zM690 1712v227l727 -197v-227z" />
<glyph unicode="&#xc1;" d="M0 0l958 1442h199l952 -1442h-294l-756 1178l-768 -1178h-291zM690 1531v230l727 194v-227z" />
<glyph unicode="&#xc2;" d="M0 0l958 1442h199l952 -1442h-294l-756 1178l-768 -1178h-291zM598 1552l351 377h221l340 -377h-293l-162 190l-158 -190h-299z" />
<glyph unicode="&#xc3;" d="M0 0l958 1442h199l952 -1442h-294l-756 1178l-768 -1178h-291zM370 1671l199 106q49 18 100 25.5t99 7.5q61 0 140 -10.5t156 -24.5v2l66 -8q45 -8 91 -14t91 -6q43 0 87 13t100 48l237 -139l-196 -103q-53 -20 -102.5 -28.5t-102.5 -8.5q-59 0 -139 10.5t-156 24.5v-2 q-57 10 -124 20.5t-124 10.5q-41 0 -86 -13.5t-98 -48.5z" />
<glyph unicode="&#xc4;" d="M0 0l958 1442h199l952 -1442h-294l-756 1178l-768 -1178h-291zM555 1552v295h342v-295h-342zM1213 1552v295h342v-295h-342z" />
<glyph unicode="&#xc5;" d="M0 0l958 1442h199l952 -1442h-294l-756 1178l-768 -1178h-291zM807 1695q0 188 246 189q250 0 250 -189q0 -190 -250 -190q-246 0 -246 190zM979 1695q0 -74 74 -73q82 0 82 69q0 72 -82 72q-74 0 -74 -68z" />
<glyph unicode="&#xc6;" horiz-adv-x="2760" d="M0 0l1522 1442h1112v-213h-883v-524h883v-213h-883v-279h883v-213h-1155v492h-584v12l-537 -504h-358zM1102 705h377v350z" />
<glyph unicode="&#xc7;" horiz-adv-x="1851" d="M125 332v778q0 332 514 332h1100v-213h-1100q-242 0 -242 -119v-778q0 -119 242 -119h1100v-213h-1100q-514 0 -514 332zM672 0h242q264 0 264 -188t-301 -189h-205v139h273q61 0 61 58q0 57 -61 57h-273v123z" />
<glyph unicode="&#xc8;" horiz-adv-x="1728" d="M133 0v1442h1483v-213h-1210v-361h1148v-213h-1148v-442h1210v-213h-1483zM500 1712v227l727 -197v-227z" />
<glyph unicode="&#xc9;" horiz-adv-x="1728" d="M133 0v1442h1483v-213h-1210v-361h1148v-213h-1148v-442h1210v-213h-1483zM499 1531v230l727 194v-227z" />
<glyph unicode="&#xca;" horiz-adv-x="1728" d="M133 0v1442h1483v-213h-1210v-361h1148v-213h-1148v-442h1210v-213h-1483zM407 1552l351 377h221l340 -377h-293l-162 190l-158 -190h-299z" />
<glyph unicode="&#xcb;" horiz-adv-x="1728" d="M133 0v1442h1483v-213h-1210v-361h1148v-213h-1148v-442h1210v-213h-1483zM364 1552v295h342v-295h-342zM1022 1552v295h342v-295h-342z" />
<glyph unicode="&#xcc;" horiz-adv-x="546" d="M133 0v1442h273v-1442h-273zM-88 1712v227l727 -197v-227z" />
<glyph unicode="&#xcd;" horiz-adv-x="546" d="M133 0v1442h273v-1442h-273zM-88 1531v230l727 194v-227z" />
<glyph unicode="&#xce;" horiz-adv-x="546" d="M133 0v1442h273v-1442h-273zM-181 1552l351 377h221l340 -377h-293l-162 190l-158 -190h-299z" />
<glyph unicode="&#xcf;" horiz-adv-x="546" d="M133 0v1442h273v-1442h-273zM-223 1552v295h342v-295h-342zM435 1552v295h342v-295h-342z" />
<glyph unicode="&#xd0;" horiz-adv-x="2158" d="M0 633v213h180v596h1260q596 0 596 -393v-660q0 -389 -596 -389h-1260v633h-180zM453 213h987q324 0 323 176v660q0 180 -323 180h-987v-383h301v-213h-301v-420z" />
<glyph unicode="&#xd1;" horiz-adv-x="2177" d="M133 0v1442h215l1436 -1106v1106h258v-1442h-215l-1436 1098v-1098h-258zM405 1671l199 106q49 18 100 25.5t99 7.5q61 0 140 -10.5t156 -24.5v2l66 -8q45 -8 91 -14t91 -6q43 0 87 13t100 48l237 -139l-196 -103q-53 -20 -102.5 -28.5t-102.5 -8.5q-59 0 -139 10.5 t-156 24.5v-2q-57 10 -124 20.5t-124 10.5q-41 0 -86 -13.5t-98 -48.5z" />
<glyph unicode="&#xd2;" horiz-adv-x="2099" d="M127 311v819q0 311 514 312h827q514 0 514 -312v-823q0 -307 -514 -307h-827q-514 0 -514 311zM399 311q0 -98 242 -98h827q242 0 242 94v823q0 98 -242 99h-827q-242 0 -242 -99v-819zM686 1712v227l727 -197v-227z" />
<glyph unicode="&#xd3;" horiz-adv-x="2099" d="M127 311v819q0 311 514 312h827q514 0 514 -312v-823q0 -307 -514 -307h-827q-514 0 -514 311zM399 311q0 -98 242 -98h827q242 0 242 94v823q0 98 -242 99h-827q-242 0 -242 -99v-819zM686 1531v230l727 194v-227z" />
<glyph unicode="&#xd4;" horiz-adv-x="2099" d="M127 311v819q0 311 514 312h827q514 0 514 -312v-823q0 -307 -514 -307h-827q-514 0 -514 311zM399 311q0 -98 242 -98h827q242 0 242 94v823q0 98 -242 99h-827q-242 0 -242 -99v-819zM593 1552l351 377h221l340 -377h-293l-162 190l-158 -190h-299z" />
<glyph unicode="&#xd5;" horiz-adv-x="2099" d="M127 311v819q0 311 514 312h827q514 0 514 -312v-823q0 -307 -514 -307h-827q-514 0 -514 311zM399 311q0 -98 242 -98h827q242 0 242 94v823q0 98 -242 99h-827q-242 0 -242 -99v-819zM366 1671l199 106q49 18 100 25.5t99 7.5q61 0 140 -10.5t156 -24.5v2l66 -8 q45 -8 91 -14t91 -6q43 0 87 13t100 48l237 -139l-196 -103q-53 -20 -102.5 -28.5t-102.5 -8.5q-59 0 -139 10.5t-156 24.5v-2q-57 10 -124 20.5t-124 10.5q-41 0 -86 -13.5t-98 -48.5z" />
<glyph unicode="&#xd6;" horiz-adv-x="2099" d="M127 311v819q0 311 514 312h827q514 0 514 -312v-823q0 -307 -514 -307h-827q-514 0 -514 311zM399 311q0 -98 242 -98h827q242 0 242 94v823q0 98 -242 99h-827q-242 0 -242 -99v-819zM549 1552v295h342v-295h-342zM1207 1552v295h342v-295h-342z" />
<glyph unicode="&#xd7;" horiz-adv-x="1148" d="M102 1049l177 100l296 -287l304 291l159 -117l-321 -309l336 -321l-181 -101l-297 285l-301 -291l-163 119l321 309z" />
<glyph unicode="&#xd8;" horiz-adv-x="2193" d="M127 311v819q0 311 514 312h1006q418 0 417 -312v-823q0 -307 -514 -307h-919q-504 2 -504 311zM399 311q0 -98 242 -98l666 1016h-666q-242 0 -242 -99v-819zM887 213h663q242 0 242 94v823q0 98 -246 99z" />
<glyph unicode="&#xd9;" horiz-adv-x="2054" d="M129 373v1069h272v-1069q0 -160 242 -160h766q242 0 242 156v1073h272v-1073q0 -369 -514 -369h-766q-514 0 -514 373zM663 1712v227l727 -197v-227z" />
<glyph unicode="&#xda;" horiz-adv-x="2054" d="M129 373v1069h272v-1069q0 -160 242 -160h766q242 0 242 156v1073h272v-1073q0 -369 -514 -369h-766q-514 0 -514 373zM663 1531v230l727 194v-227z" />
<glyph unicode="&#xdb;" horiz-adv-x="2054" d="M129 373v1069h272v-1069q0 -160 242 -160h766q242 0 242 156v1073h272v-1073q0 -369 -514 -369h-766q-514 0 -514 373zM571 1552l351 377h221l340 -377h-293l-162 190l-158 -190h-299z" />
<glyph unicode="&#xdc;" horiz-adv-x="2054" d="M129 373v1069h272v-1069q0 -160 242 -160h766q242 0 242 156v1073h272v-1073q0 -369 -514 -369h-766q-514 0 -514 373zM526 1552v295h342v-295h-342zM1184 1552v295h342v-295h-342z" />
<glyph unicode="&#xdd;" horiz-adv-x="2117" d="M0 1442h348l713 -660l713 660h344l-920 -856v-586h-272v586zM694 1531v230l727 194v-227z" />
<glyph unicode="&#xde;" horiz-adv-x="1513" d="M133 0v1442h273v-246h544q516 0 516 -311v-410q0 -311 -516 -311h-544v-164h-273zM406 377h544q242 0 242 98v410q0 98 -242 98h-544v-606z" />
<glyph unicode="&#xdf;" horiz-adv-x="4038" d="M113 973v157q0 311 514 312h1190v-213h-1190q-242 0 -242 -99v-157q0 -98 242 -99h766q514 0 514 -311v-256q0 -307 -514 -307h-1231v213h1231q242 0 241 94v256q0 98 -241 99h-766q-514 0 -514 311zM2132 973v157q0 311 514 312h1190v-213h-1190q-242 0 -242 -99v-157 q0 -98 242 -99h766q514 0 514 -311v-256q0 -307 -514 -307h-1231v213h1231q242 0 241 94v256q0 98 -241 99h-766q-514 0 -514 311z" />
<glyph unicode="&#xe0;" d="M0 0l958 1442h199l952 -1442h-294l-756 1178l-768 -1178h-291zM690 1712v227l727 -197v-227z" />
<glyph unicode="&#xe1;" d="M0 0l958 1442h199l952 -1442h-294l-756 1178l-768 -1178h-291zM690 1531v230l727 194v-227z" />
<glyph unicode="&#xe2;" d="M0 0l958 1442h199l952 -1442h-294l-756 1178l-768 -1178h-291zM598 1552l351 377h221l340 -377h-293l-162 190l-158 -190h-299z" />
<glyph unicode="&#xe3;" d="M0 0l958 1442h199l952 -1442h-294l-756 1178l-768 -1178h-291zM370 1671l199 106q49 18 100 25.5t99 7.5q61 0 140 -10.5t156 -24.5v2l66 -8q45 -8 91 -14t91 -6q43 0 87 13t100 48l237 -139l-196 -103q-53 -20 -102.5 -28.5t-102.5 -8.5q-59 0 -139 10.5t-156 24.5v-2 q-57 10 -124 20.5t-124 10.5q-41 0 -86 -13.5t-98 -48.5z" />
<glyph unicode="&#xe4;" d="M0 0l958 1442h199l952 -1442h-294l-756 1178l-768 -1178h-291zM555 1552v295h342v-295h-342zM1213 1552v295h342v-295h-342z" />
<glyph unicode="&#xe5;" d="M0 0l958 1442h199l952 -1442h-294l-756 1178l-768 -1178h-291zM807 1695q0 188 246 189q250 0 250 -189q0 -190 -250 -190q-246 0 -246 190zM979 1695q0 -74 74 -73q82 0 82 69q0 72 -82 72q-74 0 -74 -68z" />
<glyph unicode="&#xe6;" horiz-adv-x="2760" d="M0 0l1522 1442h1112v-213h-883v-524h883v-213h-883v-279h883v-213h-1155v492h-584v12l-537 -504h-358zM1102 705h377v350z" />
<glyph unicode="&#xe7;" horiz-adv-x="1851" d="M125 332v778q0 332 514 332h1100v-213h-1100q-242 0 -242 -119v-778q0 -119 242 -119h1100v-213h-1100q-514 0 -514 332zM672 0h242q264 0 264 -188t-301 -189h-205v139h273q61 0 61 58q0 57 -61 57h-273v123z" />
<glyph unicode="&#xe8;" horiz-adv-x="1728" d="M133 0v1442h1483v-213h-1210v-361h1148v-213h-1148v-442h1210v-213h-1483zM500 1712v227l727 -197v-227z" />
<glyph unicode="&#xe9;" horiz-adv-x="1728" d="M133 0v1442h1483v-213h-1210v-361h1148v-213h-1148v-442h1210v-213h-1483zM499 1531v230l727 194v-227z" />
<glyph unicode="&#xea;" horiz-adv-x="1728" d="M133 0v1442h1483v-213h-1210v-361h1148v-213h-1148v-442h1210v-213h-1483zM407 1552l351 377h221l340 -377h-293l-162 190l-158 -190h-299z" />
<glyph unicode="&#xeb;" horiz-adv-x="1728" d="M133 0v1442h1483v-213h-1210v-361h1148v-213h-1148v-442h1210v-213h-1483zM364 1552v295h342v-295h-342zM1022 1552v295h342v-295h-342z" />
<glyph unicode="&#xec;" horiz-adv-x="546" d="M133 0v1442h273v-1442h-273zM-88 1712v227l727 -197v-227z" />
<glyph unicode="&#xed;" horiz-adv-x="546" d="M133 0v1442h273v-1442h-273zM-88 1531v230l727 194v-227z" />
<glyph unicode="&#xee;" horiz-adv-x="546" d="M133 0v1442h273v-1442h-273zM-181 1552l351 377h221l340 -377h-293l-162 190l-158 -190h-299z" />
<glyph unicode="&#xef;" horiz-adv-x="546" d="M133 0v1442h273v-1442h-273zM-223 1552v295h342v-295h-342zM435 1552v295h342v-295h-342z" />
<glyph unicode="&#xf0;" horiz-adv-x="2158" d="M0 633v213h180v596h1260q596 0 596 -393v-660q0 -389 -596 -389h-1260v633h-180zM453 213h987q324 0 323 176v660q0 180 -323 180h-987v-383h301v-213h-301v-420z" />
<glyph unicode="&#xf1;" horiz-adv-x="2177" d="M133 0v1442h215l1436 -1106v1106h258v-1442h-215l-1436 1098v-1098h-258zM405 1671l199 106q49 18 100 25.5t99 7.5q61 0 140 -10.5t156 -24.5v2l66 -8q45 -8 91 -14t91 -6q43 0 87 13t100 48l237 -139l-196 -103q-53 -20 -102.5 -28.5t-102.5 -8.5q-59 0 -139 10.5 t-156 24.5v-2q-57 10 -124 20.5t-124 10.5q-41 0 -86 -13.5t-98 -48.5z" />
<glyph unicode="&#xf2;" horiz-adv-x="2099" d="M127 311v819q0 311 514 312h827q514 0 514 -312v-823q0 -307 -514 -307h-827q-514 0 -514 311zM399 311q0 -98 242 -98h827q242 0 242 94v823q0 98 -242 99h-827q-242 0 -242 -99v-819zM686 1712v227l727 -197v-227z" />
<glyph unicode="&#xf3;" horiz-adv-x="2099" d="M127 311v819q0 311 514 312h827q514 0 514 -312v-823q0 -307 -514 -307h-827q-514 0 -514 311zM399 311q0 -98 242 -98h827q242 0 242 94v823q0 98 -242 99h-827q-242 0 -242 -99v-819zM686 1531v230l727 194v-227z" />
<glyph unicode="&#xf4;" horiz-adv-x="2099" d="M127 311v819q0 311 514 312h827q514 0 514 -312v-823q0 -307 -514 -307h-827q-514 0 -514 311zM399 311q0 -98 242 -98h827q242 0 242 94v823q0 98 -242 99h-827q-242 0 -242 -99v-819zM593 1552l351 377h221l340 -377h-293l-162 190l-158 -190h-299z" />
<glyph unicode="&#xf5;" horiz-adv-x="2099" d="M127 311v819q0 311 514 312h827q514 0 514 -312v-823q0 -307 -514 -307h-827q-514 0 -514 311zM399 311q0 -98 242 -98h827q242 0 242 94v823q0 98 -242 99h-827q-242 0 -242 -99v-819zM366 1671l199 106q49 18 100 25.5t99 7.5q61 0 140 -10.5t156 -24.5v2l66 -8 q45 -8 91 -14t91 -6q43 0 87 13t100 48l237 -139l-196 -103q-53 -20 -102.5 -28.5t-102.5 -8.5q-59 0 -139 10.5t-156 24.5v-2q-57 10 -124 20.5t-124 10.5q-41 0 -86 -13.5t-98 -48.5z" />
<glyph unicode="&#xf6;" horiz-adv-x="2099" d="M127 311v819q0 311 514 312h827q514 0 514 -312v-823q0 -307 -514 -307h-827q-514 0 -514 311zM399 311q0 -98 242 -98h827q242 0 242 94v823q0 98 -242 99h-827q-242 0 -242 -99v-819zM549 1552v295h342v-295h-342zM1207 1552v295h342v-295h-342z" />
<glyph unicode="&#xf7;" horiz-adv-x="978" d="M49 621v213h879v-213h-879zM365 268v226h241v-226h-241zM365 965v225h241v-225h-241z" />
<glyph unicode="&#xf8;" horiz-adv-x="2193" d="M127 311v819q0 311 514 312h1006q418 0 417 -312v-823q0 -307 -514 -307h-919q-504 2 -504 311zM399 311q0 -98 242 -98l666 1016h-666q-242 0 -242 -99v-819zM887 213h663q242 0 242 94v823q0 98 -246 99z" />
<glyph unicode="&#xf9;" horiz-adv-x="2054" d="M129 373v1069h272v-1069q0 -160 242 -160h766q242 0 242 156v1073h272v-1073q0 -369 -514 -369h-766q-514 0 -514 373zM663 1712v227l727 -197v-227z" />
<glyph unicode="&#xfa;" horiz-adv-x="2054" d="M129 373v1069h272v-1069q0 -160 242 -160h766q242 0 242 156v1073h272v-1073q0 -369 -514 -369h-766q-514 0 -514 373zM663 1531v230l727 194v-227z" />
<glyph unicode="&#xfb;" horiz-adv-x="2054" d="M129 373v1069h272v-1069q0 -160 242 -160h766q242 0 242 156v1073h272v-1073q0 -369 -514 -369h-766q-514 0 -514 373zM571 1552l351 377h221l340 -377h-293l-162 190l-158 -190h-299z" />
<glyph unicode="&#xfc;" horiz-adv-x="2054" d="M129 373v1069h272v-1069q0 -160 242 -160h766q242 0 242 156v1073h272v-1073q0 -369 -514 -369h-766q-514 0 -514 373zM526 1552v295h342v-295h-342zM1184 1552v295h342v-295h-342z" />
<glyph unicode="&#xfd;" horiz-adv-x="2117" d="M0 1442h348l713 -660l713 660h344l-920 -856v-586h-272v586zM694 1531v230l727 194v-227z" />
<glyph unicode="&#xfe;" horiz-adv-x="1513" d="M133 0v1442h273v-246h544q516 0 516 -311v-410q0 -311 -516 -311h-544v-164h-273zM406 377h544q242 0 242 98v410q0 98 -242 98h-544v-606z" />
<glyph unicode="&#xff;" horiz-adv-x="2117" d="M0 1442h348l713 -660l713 660h344l-920 -856v-586h-272v586zM559 1552v295h342v-295h-342zM1217 1552v295h342v-295h-342z" />
<glyph unicode="&#x152;" horiz-adv-x="2406" d="M129 311v819q0 311 514 312h303q139 0 242 -29v29h1093v-213h-819v-361h819v-213h-821v-442h821v-213h-1093v29q-102 -29 -242 -29h-303q-514 0 -514 311zM401 311q0 -98 242 -98h303q227 0 242 72v868q-14 76 -242 76h-303q-242 0 -242 -99v-819z" />
<glyph unicode="&#x153;" horiz-adv-x="2406" d="M129 311v819q0 311 514 312h303q139 0 242 -29v29h1093v-213h-819v-361h819v-213h-821v-442h821v-213h-1093v29q-102 -29 -242 -29h-303q-514 0 -514 311zM401 311q0 -98 242 -98h303q227 0 242 72v868q-14 76 -242 76h-303q-242 0 -242 -99v-819z" />
<glyph unicode="&#x178;" horiz-adv-x="2117" d="M0 1442h348l713 -660l713 660h344l-920 -856v-586h-272v586zM559 1552v295h342v-295h-342zM1217 1552v295h342v-295h-342z" />
<glyph unicode="&#x2c6;" horiz-adv-x="1040" d="M63 1319l351 377h221l340 -377h-293l-162 190l-158 -190h-299z" />
<glyph unicode="&#x2da;" horiz-adv-x="702" d="M102 1462q0 188 246 189q250 0 250 -189q0 -190 -250 -190q-246 0 -246 190zM274 1462q0 -74 74 -73q82 0 82 69q0 72 -82 72q-74 0 -74 -68z" />
<glyph unicode="&#x2dc;" horiz-adv-x="1554" d="M94 1438l199 106q49 18 100 25.5t99 7.5q61 0 140 -10.5t156 -24.5v2l66 -8q45 -8 91 -14t91 -6q43 0 87 13t100 48l237 -139l-196 -103q-53 -20 -102.5 -28.5t-102.5 -8.5q-59 0 -139 10.5t-156 24.5v-2q-57 10 -124 20.5t-124 10.5q-41 0 -86 -13.5t-98 -48.5z" />
<glyph unicode="&#x2000;" horiz-adv-x="976" />
<glyph unicode="&#x2001;" horiz-adv-x="1955" />
<glyph unicode="&#x2002;" horiz-adv-x="976" />
<glyph unicode="&#x2003;" horiz-adv-x="1955" />
<glyph unicode="&#x2004;" horiz-adv-x="651" />
<glyph unicode="&#x2005;" horiz-adv-x="487" />
<glyph unicode="&#x2006;" horiz-adv-x="325" />
<glyph unicode="&#x2007;" horiz-adv-x="325" />
<glyph unicode="&#x2008;" horiz-adv-x="243" />
<glyph unicode="&#x2009;" horiz-adv-x="391" />
<glyph unicode="&#x200a;" horiz-adv-x="108" />
<glyph unicode="&#x2010;" horiz-adv-x="1146" d="M133 580v213h879v-213h-879z" />
<glyph unicode="&#x2011;" horiz-adv-x="1146" d="M133 580v213h879v-213h-879z" />
<glyph unicode="&#x2012;" horiz-adv-x="1146" d="M133 580v213h879v-213h-879z" />
<glyph unicode="&#x2013;" horiz-adv-x="1583" d="M133 410v213h1315v-213h-1315z" />
<glyph unicode="&#x2014;" horiz-adv-x="2658" d="M133 492v213h2392v-213h-2392z" />
<glyph unicode="&#x2018;" horiz-adv-x="493" d="M98 1174v212l103 201h131l-56 -147h105v-266h-283z" />
<glyph unicode="&#x2019;" horiz-adv-x="489" d="M106 1321v266h283v-213l-102 -200h-131l55 147h-105z" />
<glyph unicode="&#x201a;" horiz-adv-x="436" d="M100 0v266h240v-213l-100 -203h-93l58 150h-105z" />
<glyph unicode="&#x201c;" horiz-adv-x="866" d="M117 1157v213l100 203h92l-57 -150h104v-266h-239zM504 1157v213l100 203h92l-57 -150h104v-266h-239z" />
<glyph unicode="&#x201d;" horiz-adv-x="866" d="M121 1309v266h239v-213l-100 -203h-92l57 150h-104zM508 1309v266h240v-213l-101 -203h-92l57 150h-104z" />
<glyph unicode="&#x201e;" horiz-adv-x="864" d="M121 0v266h239v-213l-100 -203h-92l57 150h-104zM508 0v266h240v-213l-101 -203h-92l57 150h-104z" />
<glyph unicode="&#x2022;" horiz-adv-x="1595" d="M45 389l754 705l751 -705h-1505z" />
<glyph unicode="&#x2026;" horiz-adv-x="2041" d="M1511 66v266h322v-266h-322zM844 66v266h322v-266h-322zM133 66v266h322v-266h-322z" />
<glyph unicode="&#x202f;" horiz-adv-x="391" />
<glyph unicode="&#x2039;" horiz-adv-x="696" d="M102 604v168l492 367v-232l-297 -219l297 -225v-230z" />
<glyph unicode="&#x203a;" horiz-adv-x="696" d="M102 233v232l295 219l-295 225v230l492 -371v-168z" />
<glyph unicode="&#x205f;" horiz-adv-x="487" />
<glyph unicode="&#x20ac;" horiz-adv-x="1564" d="M14 451l41 192h152v156h-193l41 192h152v139q0 311 514 312h719l-99 -213h-620q-242 0 -242 -99v-139h754l-88 -192h-666v-156h594l-88 -192h-506v-140q0 -98 242 -98h756v-213h-756q-514 0 -514 311v140h-193z" />
<glyph unicode="&#x2122;" horiz-adv-x="1835" d="M131 1247v193h676v-193h-236v-708h-198v708h-242zM909 539v901h178l234 -570l231 570h181v-901h-199v338l-139 -338h-150l-139 335v-335h-197z" />
<glyph unicode="&#xe000;" horiz-adv-x="1440" d="M0 1440h1440v-1440h-1440v1440z" />
<glyph unicode="&#xfb01;" horiz-adv-x="2177" d="M1763 0v1442h273v-1442h-273zM133 0v1442h1483v-213h-1210v-422h1128v-213h-1128v-594h-273z" />
<glyph unicode="&#xfb02;" horiz-adv-x="3250" d="M1724 0v1442h275v-1229h1169v-213h-1444zM133 0v1442h1483v-213h-1210v-422h1128v-213h-1128v-594h-273z" />
<glyph unicode="&#xfb03;" horiz-adv-x="3807" d="M3393 0v1442h273v-1442h-273zM1763 0v1442h1483v-213h-1210v-422h1128v-213h-1128v-594h-273zM133 0v1442h1483v-213h-1210v-422h1128v-213h-1128v-594h-273z" />
<glyph unicode="&#xfb04;" horiz-adv-x="4880" d="M3354 0v1442h275v-1229h1169v-213h-1444zM1763 0v1442h1483v-213h-1210v-422h1128v-213h-1128v-594h-273zM133 0v1442h1483v-213h-1210v-422h1128v-213h-1128v-594h-273z" />
</font>
</defs>
</svg>
